<svg width="327" height="327" viewBox="0 0 327 327" fill="none" xmlns="http://www.w3.org/2000/svg">
<path d="M38.6934 96.8464C39.2644 89.3474 37.7872 82.4404 37.4615 75.4629C36.5511 55.9588 53.2317 38.4961 72.8395 38.6236C81.8224 38.682 90.7196 40.6779 99.7464 39.779C110.855 38.6728 119.918 34.6328 126.38 24.6765C132.794 14.7927 140 5.37203 152.373 1.75516C166.119 -2.26354 184.122 2.85394 193.187 14.0324C197.061 18.8106 200.574 23.8953 204.62 28.5185C209.543 34.1452 216.142 36.718 223.453 37.7943C231.793 39.0219 240.045 38.3365 248.32 37.211C272.258 33.9547 292.246 53.6174 289.666 77.7344C288.73 86.4793 287.175 95.2335 289.238 104.043C291.471 113.579 295.871 121.407 304.197 127.327C313.1 133.659 321.794 140.473 325.072 151.947C329.16 166.26 323.754 184.172 312.015 193.436C307.313 197.146 302.309 200.525 297.928 204.58C290.884 211.1 288.978 219.893 288.339 229.061C287.907 235.26 289.033 241.335 289.764 247.445C292.115 267.12 280.279 284.692 261.605 288.752C255.067 290.173 248.351 289.415 241.704 288.723C230.977 287.607 220.502 287.756 210.648 293.359C203.814 297.244 199.392 303.335 195.265 309.449C183.29 327.192 158.673 333.092 137.822 316.44C132.432 312.135 128.779 306.181 124.708 300.79C118.138 292.09 109.458 289.017 99.272 288.253C90.4096 287.588 81.6836 289.478 72.8403 289.396C52.8141 289.209 36.9573 272.744 37.5142 252.642C37.7354 244.657 39.1503 236.755 38.7251 228.723C38.0898 216.72 33.4189 207.044 23.7426 199.632C16.1299 193.8 8.07771 188.394 3.8749 179.04C-2.84848 164.075 1.5949 143.908 14.3764 133.577C19.2929 129.603 24.5642 126.022 29.1723 121.724C36.1494 115.216 38.5754 106.65 38.6934 96.8464ZM167.635 165.135C163.148 169.602 158.419 173.857 154.252 178.605C150.933 182.387 148.655 182.535 145.126 178.73C138.448 171.528 131.379 164.673 124.238 157.921C119.787 153.713 114.584 153.243 110.004 155.955C105.252 158.769 103.103 164.137 104.421 169.784C105.143 172.876 107.266 175.04 109.368 177.156C118.405 186.253 127.537 195.255 136.582 204.344C145.173 212.976 153.834 212.976 162.517 204.27C166.751 200.025 171.024 195.819 175.255 191.572C191.596 175.172 208.021 158.853 224.219 142.312C231.332 135.048 228.368 124.627 218.722 121.878C213.733 120.456 209.989 122.817 206.675 126.12C193.81 138.94 180.982 151.797 167.635 165.135Z" fill="white"/>
</svg>
