<svg width="396" height="235" viewBox="0 0 396 235" fill="none" xmlns="http://www.w3.org/2000/svg">
<path d="M221 198.927C200.51 198.927 180.521 198.927 160.268 198.927C152.789 222.497 137.335 236.026 111.931 233.874C91.0143 232.103 78.5199 219.075 72.6867 198.926C65.633 198.926 58.4861 198.967 51.3399 198.915C42.6884 198.853 38.1222 194.278 38.085 185.607C38.0386 174.808 38.0739 164.01 38.0739 152.693C29.6309 152.693 21.5295 152.751 13.4294 152.673C7.89783 152.62 3.88119 150.116 1.83408 144.841C0.0489082 140.241 1.14039 135.796 4.78682 133.105C7.61801 131.016 11.708 129.684 15.2511 129.657C48.2398 129.404 81.2312 129.489 114.222 129.525C118.9 129.53 123.173 128.889 126.127 124.683C131.012 117.728 127.399 108.436 119.05 106.83C117.11 106.457 115.072 106.507 113.08 106.506C80.4223 106.488 47.764 106.599 15.1087 106.337C11.5835 106.308 7.51409 104.887 4.6994 102.776C1.05938 100.046 0.0530651 95.5961 1.88466 91.0158C3.99041 85.75 8.04786 83.3353 13.5732 83.3186C27.7357 83.2757 41.8984 83.3023 56.0611 83.3006C64.7253 83.2995 73.3907 83.3868 82.0533 83.2647C87.9895 83.1811 92.1964 79.9614 93.6442 74.7884C95.8129 67.0396 91.1789 61.0996 82.562 61.0453C63.5681 60.9257 44.573 61.0292 25.5785 60.9856C18.5312 60.9694 13.5747 56.9125 12.907 50.8107C12.156 43.9474 16.8123 38.3212 23.7955 37.9888C28.4071 37.7692 33.0376 37.9472 38.0744 37.9472C38.0744 29.3786 37.9782 21.2568 38.1025 13.1384C38.2179 5.59568 42.8283 0.959965 50.3588 0.955437C119.339 0.913967 188.32 0.931455 257.3 0.941052C257.776 0.941117 258.251 1.07106 259.295 1.22305C259.295 2.81199 259.295 4.40492 259.295 5.99785C259.295 26.492 259.281 46.9862 259.302 67.4804C259.312 77.5307 263.578 81.819 273.566 81.8249C301.725 81.8413 329.884 81.7733 358.042 81.8535C375.408 81.9029 390.523 92.6265 394.395 107.699C395.337 111.364 395.749 115.259 395.771 119.051C395.897 141.044 395.854 163.038 395.823 185.032C395.81 194.645 391.438 198.897 381.677 198.924C376.021 198.94 370.365 198.927 364.487 198.927C357.579 221.331 343.144 234.777 319.09 234.039C296.699 233.353 283.294 220.169 276.885 198.927C258.437 198.927 239.968 198.927 221 198.927ZM107.513 209.224C108.442 209.577 109.351 209.994 110.301 210.273C119.479 212.96 128.723 209.684 133.926 201.922C139.171 194.1 138.799 184.378 132.968 176.85C127.468 169.75 117.914 166.918 109.213 170.201C101.074 173.272 96.1246 179.263 95.3388 188.015C94.4967 197.391 98.6582 204.335 107.513 209.224ZM304.674 176.22C297.745 185.048 297.762 195.877 304.717 203.992C310.929 211.24 322.296 213.366 330.63 208.839C339.567 203.984 344.091 193.342 340.886 183.752C335.402 167.343 316.123 164.212 304.674 176.22Z" fill="white"/>
<path d="M282.489 10.1373C282.489 7.70413 282.489 5.75242 282.489 3.45764C314.491 9.65316 331.334 32.282 345.833 58.4271C324.637 58.4271 303.914 58.4271 282.489 58.4271C282.489 42.4916 282.489 26.5551 282.489 10.1373Z" fill="white"/>
</svg>
