<svg width="100" height="100" viewBox="0 0 100 100" fill="none" xmlns="http://www.w3.org/2000/svg">
<path d="M37.1834 15.0064C54.9163 15.0064 72.4803 14.9934 90.0441 15.0293C91.5791 15.0324 93.1135 15.3563 95.0076 15.5722C94.5072 16.2363 94.3231 16.5533 94.0723 16.8031C81.5913 29.2313 69.1152 41.6645 56.6124 54.0707C52.5475 58.1042 47.4089 58.0807 43.3098 54.0144C30.8101 41.6146 18.336 29.189 5.856 16.7693C5.63058 16.545 5.45543 16.2702 4.95593 15.6382C6.73352 15.3993 8.19347 15.0412 9.65542 15.0328C18.7748 14.9805 27.8947 15.0064 37.1834 15.0064Z" fill="#5BAD54"/>
<path d="M10.415 79.1066C18.6391 70.6994 26.7791 62.3771 35.1069 53.8628C36.8569 55.71 38.1202 57.1495 39.4935 58.4751C45.6798 64.446 54.3317 64.4293 60.5062 58.4417C61.8717 57.1176 63.148 55.7016 64.6146 54.1722C74.6846 64.4525 84.5575 74.5315 94.6148 84.7988C93.3063 84.9595 91.8683 85.287 90.4296 85.2898C72.3529 85.3248 54.2761 85.3129 36.1994 85.3129C27.2455 85.3129 18.2915 85.3345 9.33777 85.2896C7.96421 85.2827 6.59219 84.969 4.72351 84.7352C6.84662 82.6362 8.58878 80.9139 10.415 79.1066Z" fill="#5BAD54"/>
<path d="M93.1566 25.9698C95.0587 23.9159 96.8773 21.9474 98.6959 19.979C98.9268 20.0946 99.1578 20.2103 99.3887 20.3259C99.5915 21.6194 99.968 22.9124 99.9709 24.2064C100.01 41.5472 100.009 58.8883 99.9721 76.2291C99.9694 77.4969 99.6147 78.7638 99.3943 80.226C89.3244 69.9179 79.4482 59.8079 69.6853 49.814C77.0792 42.3029 85.0761 34.1791 93.1566 25.9698Z" fill="#5BAD54"/>
<path d="M25.5059 44.5443C27.4265 46.4446 29.2639 48.2616 30.7802 49.761C20.7873 59.9559 10.8802 70.0634 0.653477 80.4969C0.396412 78.8731 0.0307547 77.6298 0.0280885 76.3857C-0.00935536 58.9256 -0.0096521 41.4654 0.0289369 24.0053C0.0316703 22.7692 0.409177 21.5339 0.680018 19.8872C9.15575 28.305 17.2892 36.3829 25.5059 44.5443Z" fill="#5BAD54"/>
</svg>
