<svg width="17" height="17" viewBox="0 0 17 17" fill="none" xmlns="http://www.w3.org/2000/svg">
<path d="M13.151 16.4352C12.7265 16.1958 12.4441 15.8244 12.1195 15.5037C10.8022 14.2025 9.49546 12.8905 8.18996 11.5774C7.7497 11.1346 7.75304 10.9385 8.16679 10.4774C8.19951 10.441 8.22922 10.4018 8.25733 10.3676C8.23363 10.249 8.1436 10.1941 8.07489 10.1252C6.51899 8.56653 4.96021 7.01072 3.40824 5.44814C3.25464 5.29349 3.15848 5.25995 2.98966 5.43436C2.7211 5.71182 2.38482 5.68371 2.15139 5.37336C1.64 4.69347 1.13746 4.00681 0.638783 3.31751C0.454202 3.06236 0.479696 2.79563 0.701918 2.56678C0.97494 2.28562 1.25346 2.00934 1.53882 1.74075C1.78934 1.50496 2.02532 1.48803 2.30625 1.69038C2.98305 2.17785 3.65741 2.66889 4.32535 3.16841C4.64543 3.40778 4.67973 3.74107 4.40271 4.03017C4.2362 4.20393 4.27166 4.30318 4.42405 4.45477C5.99135 6.01387 7.55424 7.57742 9.11281 9.14525C9.25661 9.2899 9.34512 9.29857 9.49501 9.15078C9.82538 8.82507 10.1023 8.8299 10.4268 9.15386C11.9852 10.7098 13.5461 12.2634 15.0935 13.8302C15.5916 14.3345 15.7026 14.9536 15.4404 15.611C15.1788 16.2671 14.6537 16.5853 13.964 16.629C13.6872 16.6466 13.42 16.5631 13.151 16.4352Z" fill="white"/>
<path d="M8.94147 5.85508C9.06366 5.75148 9.07301 5.65178 9.0329 5.51106C8.40555 3.31014 9.68799 1.15832 11.918 0.662353C12.3534 0.565518 12.7931 0.553775 13.2346 0.61952C13.4017 0.6444 13.5406 0.712185 13.5972 0.883724C13.6538 1.05517 13.5815 1.19457 13.4647 1.31373C13.2137 1.56982 12.9536 1.81722 12.7081 2.07842C11.8182 3.0253 12.2541 4.51803 13.5206 4.81369C14.0298 4.93256 14.5203 4.81856 14.9211 4.45839C15.2061 4.20227 15.4771 3.92993 15.7457 3.65637C15.8879 3.5116 16.0467 3.43584 16.2391 3.50848C16.4167 3.57557 16.4543 3.73753 16.4758 3.91431C16.724 5.94808 15.3526 7.8193 13.3525 8.16804C12.7853 8.26693 12.2217 8.24245 11.6711 8.07782C11.4906 8.02385 11.3673 8.05174 11.2572 8.19375C11.2319 8.22641 11.192 8.24854 11.1696 8.28258C11.0072 8.52918 10.8461 8.53276 10.6036 8.35364C10.2997 8.1292 9.93175 8.11616 9.57404 8.23008C9.41105 8.28199 9.29564 8.26895 9.1725 8.14119C8.8195 7.77496 8.45932 7.41531 8.09277 7.06263C7.95171 6.92691 7.94937 6.83462 8.09656 6.69806C8.38368 6.43169 8.65276 6.14588 8.94147 5.85508Z" fill="white"/>
<path d="M3.38538 11.4175C4.12845 10.6721 4.85929 9.93948 5.58928 9.20603C5.84567 8.94843 5.84544 8.94672 6.09593 9.19565C6.43331 9.53091 6.76809 9.86881 7.10687 10.2026C7.20871 10.303 7.2708 10.3943 7.20331 10.5516C7.01566 10.989 7.09669 11.4051 7.36621 11.7806C7.46609 11.9198 7.45673 11.9988 7.33896 12.116C5.98451 13.4643 4.63942 14.8219 3.28179 16.167C2.65631 16.7867 1.61293 16.7755 0.996052 16.1667C0.364002 15.5429 0.333219 14.5016 0.954029 13.8617C1.75006 13.0412 2.56565 12.2397 3.38538 11.4175Z" fill="white"/>
</svg>
