<svg width="255" height="59" viewBox="0 0 255 59" fill="none" xmlns="http://www.w3.org/2000/svg">
<path d="M2.976 47V13.4H19.152C22.288 13.4 24.992 13.912 27.264 14.936C29.568 15.96 31.344 17.432 32.592 19.352C33.84 21.24 34.464 23.48 34.464 26.072C34.464 28.664 33.84 30.904 32.592 32.792C31.344 34.68 29.568 36.152 27.264 37.208C24.992 38.232 22.288 38.744 19.152 38.744H9.264L14.304 33.896V47H2.976ZM14.304 35.144L9.264 30.008H18.432C20 30.008 21.152 29.656 21.888 28.952C22.656 28.248 23.04 27.288 23.04 26.072C23.04 24.856 22.656 23.896 21.888 23.192C21.152 22.488 20 22.136 18.432 22.136H9.264L14.304 17V35.144ZM55.2626 47.768C52.5746 47.768 50.0786 47.352 47.7746 46.52C45.5026 45.656 43.5186 44.44 41.8226 42.872C40.1586 41.304 38.8626 39.448 37.9346 37.304C37.0066 35.16 36.5426 32.792 36.5426 30.2C36.5426 27.608 37.0066 25.24 37.9346 23.096C38.8626 20.952 40.1586 19.096 41.8226 17.528C43.5186 15.96 45.5026 14.76 47.7746 13.928C50.0786 13.064 52.5746 12.632 55.2626 12.632C58.5586 12.632 61.4706 13.208 63.9986 14.36C66.5586 15.512 68.6706 17.176 70.3346 19.352L63.1826 25.736C62.1906 24.488 61.0866 23.528 59.8706 22.856C58.6866 22.152 57.3426 21.8 55.8386 21.8C54.6546 21.8 53.5826 21.992 52.6226 22.376C51.6626 22.76 50.8306 23.32 50.1266 24.056C49.4546 24.792 48.9266 25.688 48.5426 26.744C48.1586 27.768 47.9666 28.92 47.9666 30.2C47.9666 31.48 48.1586 32.648 48.5426 33.704C48.9266 34.728 49.4546 35.608 50.1266 36.344C50.8306 37.08 51.6626 37.64 52.6226 38.024C53.5826 38.408 54.6546 38.6 55.8386 38.6C57.3426 38.6 58.6866 38.264 59.8706 37.592C61.0866 36.888 62.1906 35.912 63.1826 34.664L70.3346 41.048C68.6706 43.192 66.5586 44.856 63.9986 46.04C61.4706 47.192 58.5586 47.768 55.2626 47.768ZM73.7573 47V13.4H106.253V47H95.1173V19.784L97.5653 22.184H82.4453L84.8932 19.784V47H73.7573ZM132.835 47L124.483 31.256L133.507 25.976L145.603 47H132.835ZM111.907 47V13.4H123.235V47H111.907ZM119.971 34.856V25.928H132.691V34.856H119.971ZM134.611 31.4L124.195 30.344L133.843 13.4H145.651L134.611 31.4Z" fill="white"/>
<path d="M158.18 22.1C157.707 22.1 157.313 22 157 21.8C156.693 21.5933 156.467 21.2833 156.32 20.87C156.173 20.45 156.1 19.9167 156.1 19.27C156.1 18.61 156.167 18.0733 156.3 17.66C156.44 17.24 156.663 16.93 156.97 16.73C157.277 16.53 157.68 16.43 158.18 16.43C158.66 16.43 159.1 16.5467 159.5 16.78C159.9 17.0067 160.22 17.3333 160.46 17.76C160.7 18.18 160.82 18.6833 160.82 19.27C160.82 19.8567 160.7 20.3633 160.46 20.79C160.22 21.21 159.9 21.5333 159.5 21.76C159.1 21.9867 158.66 22.1 158.18 22.1ZM154.53 23.94V16.53H156.68V17.27L156.69 19.27L156.79 21.27V23.94H154.53ZM157.64 20.34C157.807 20.34 157.957 20.3 158.09 20.22C158.223 20.14 158.33 20.02 158.41 19.86C158.49 19.7 158.53 19.5033 158.53 19.27C158.53 19.03 158.49 18.83 158.41 18.67C158.33 18.51 158.223 18.39 158.09 18.31C157.957 18.23 157.807 18.19 157.64 18.19C157.473 18.19 157.323 18.23 157.19 18.31C157.057 18.39 156.95 18.51 156.87 18.67C156.79 18.83 156.75 19.03 156.75 19.27C156.75 19.5033 156.79 19.7 156.87 19.86C156.95 20.02 157.057 20.14 157.19 20.22C157.323 20.3 157.473 20.34 157.64 20.34ZM164.605 22V21.03L164.445 20.77V18.93C164.445 18.6633 164.361 18.46 164.195 18.32C164.035 18.18 163.771 18.11 163.405 18.11C163.158 18.11 162.908 18.15 162.655 18.23C162.401 18.3033 162.185 18.4067 162.005 18.54L161.285 17.05C161.605 16.85 161.988 16.6967 162.435 16.59C162.881 16.4833 163.318 16.43 163.745 16.43C164.685 16.43 165.411 16.64 165.925 17.06C166.445 17.48 166.705 18.1467 166.705 19.06V22H164.605ZM163.055 22.1C162.608 22.1 162.235 22.0233 161.935 21.87C161.635 21.7167 161.408 21.5133 161.255 21.26C161.101 21 161.025 20.7133 161.025 20.4C161.025 20.0467 161.115 19.7467 161.295 19.5C161.475 19.2533 161.748 19.0667 162.115 18.94C162.488 18.8133 162.958 18.75 163.525 18.75H164.665V19.84H163.885C163.645 19.84 163.468 19.88 163.355 19.96C163.248 20.0333 163.195 20.1467 163.195 20.3C163.195 20.4267 163.241 20.5333 163.335 20.62C163.435 20.7 163.568 20.74 163.735 20.74C163.888 20.74 164.028 20.7 164.155 20.62C164.288 20.5333 164.385 20.4 164.445 20.22L164.735 20.89C164.648 21.2967 164.465 21.6 164.185 21.8C163.905 22 163.528 22.1 163.055 22.1ZM169.746 22.13C170.292 22.13 170.789 22.0633 171.236 21.93C171.689 21.7967 172.052 21.5967 172.326 21.33C172.599 21.0633 172.736 20.7333 172.736 20.34C172.736 19.9333 172.562 19.61 172.216 19.37C171.869 19.13 171.402 19.01 170.816 19.01L170.766 19.41C171.106 19.41 171.412 19.3467 171.686 19.22C171.959 19.0933 172.176 18.9233 172.336 18.71C172.502 18.4967 172.586 18.2567 172.586 17.99C172.586 17.6233 172.456 17.3233 172.196 17.09C171.936 16.8567 171.586 16.6833 171.146 16.57C170.706 16.4567 170.219 16.4033 169.686 16.41C169.306 16.4167 168.912 16.4633 168.506 16.55C168.106 16.6367 167.719 16.7533 167.346 16.9L167.856 18.33C168.169 18.2233 168.472 18.14 168.766 18.08C169.059 18.02 169.339 17.99 169.606 17.99C169.786 17.99 169.926 18.0033 170.026 18.03C170.132 18.0567 170.206 18.0933 170.246 18.14C170.292 18.1867 170.316 18.2433 170.316 18.31C170.316 18.3767 170.299 18.4333 170.266 18.48C170.232 18.5267 170.179 18.56 170.106 18.58C170.039 18.6 169.949 18.61 169.836 18.61H168.796V19.87H170.046C170.199 19.87 170.306 19.8933 170.366 19.94C170.432 19.98 170.466 20.0533 170.466 20.16C170.466 20.2467 170.432 20.3167 170.366 20.37C170.299 20.4233 170.206 20.4633 170.086 20.49C169.972 20.5167 169.839 20.53 169.686 20.53C169.346 20.53 169.016 20.5067 168.696 20.46C168.382 20.4133 168.069 20.3333 167.756 20.22L167.186 21.71C167.599 21.8567 168.022 21.9633 168.456 22.03C168.896 22.0967 169.326 22.13 169.746 22.13ZM177.276 21.03V18.29H176.146L176.136 18.63C176.129 18.8633 176.116 19.08 176.096 19.28C176.082 19.48 176.052 19.66 176.006 19.82C175.959 19.9733 175.889 20.11 175.796 20.23C175.709 20.3433 175.586 20.4367 175.426 20.51L173.216 20.23C173.389 20.23 173.532 20.1867 173.646 20.1C173.759 20.0067 173.846 19.88 173.906 19.72C173.972 19.5533 174.019 19.3633 174.046 19.15C174.079 18.9367 174.099 18.7067 174.106 18.46L174.176 16.53H179.526V21.03H177.276ZM173.056 23.08V20.23H180.256V23.08H178.166V22H175.146V23.08H173.056ZM180.917 22V16.53H183.987C184.72 16.53 185.29 16.6567 185.697 16.91C186.103 17.1567 186.307 17.5067 186.307 17.96C186.307 18.4 186.12 18.7533 185.747 19.02C185.373 19.28 184.87 19.41 184.237 19.41L184.407 18.95C185.08 18.95 185.59 19.0733 185.937 19.32C186.29 19.5667 186.467 19.9267 186.467 20.4C186.467 20.8867 186.273 21.2767 185.887 21.57C185.507 21.8567 184.927 22 184.147 22H180.917ZM182.897 20.6H183.947C184.113 20.6 184.237 20.5633 184.317 20.49C184.397 20.4167 184.437 20.3167 184.437 20.19C184.437 20.0567 184.397 19.96 184.317 19.9C184.237 19.8333 184.113 19.8 183.947 19.8H182.897V20.6ZM182.897 18.69H183.787C183.96 18.69 184.083 18.6567 184.157 18.59C184.237 18.5233 184.277 18.4267 184.277 18.3C184.277 18.1667 184.237 18.0733 184.157 18.02C184.083 17.96 183.96 17.93 183.787 17.93H182.897V18.69ZM187.206 22V16.53H189.456V19L191.346 16.53H193.426V22H191.176V19.52L189.296 22H187.206ZM201.191 22L200.051 19.49L201.871 18.43L203.861 22H201.191ZM199.361 20.18V18.45H201.391V20.18H199.361ZM202.101 19.51L199.981 19.31L201.371 16.53H203.751L202.101 19.51ZM196.601 22H193.941L195.921 18.43L197.741 19.49L196.601 22ZM200.021 22H197.791V16.53H200.021V22ZM198.441 20.18H196.411V18.45H198.441V20.18ZM195.691 19.51L194.051 16.53H196.431L197.801 19.31L195.691 19.51ZM204.384 22V16.53H206.634V18.45H208.174V16.53H210.424V22H208.174V20.22H206.634V22H204.384ZM217.373 22V16.53H219.623V22H217.373ZM214.863 18.18C215.596 18.18 216.143 18.34 216.503 18.66C216.863 18.98 217.043 19.4333 217.043 20.02C217.043 20.6333 216.83 21.1167 216.403 21.47C215.983 21.8233 215.376 22 214.583 22H211.483V16.53H213.733V18.18H214.863ZM214.353 20.48C214.506 20.48 214.626 20.44 214.713 20.36C214.8 20.28 214.843 20.1533 214.843 19.98C214.843 19.8067 214.8 19.6833 214.713 19.61C214.626 19.5367 214.506 19.5 214.353 19.5H213.733V20.48H214.353ZM223.632 22.1C222.966 22.1 222.382 21.9767 221.882 21.73C221.389 21.4833 221.006 21.1467 220.732 20.72C220.459 20.2867 220.322 19.8 220.322 19.26C220.322 18.7067 220.456 18.2167 220.722 17.79C220.996 17.3633 221.366 17.03 221.832 16.79C222.306 16.55 222.836 16.43 223.422 16.43C223.962 16.43 224.459 16.5367 224.912 16.75C225.372 16.9633 225.739 17.28 226.012 17.7C226.292 18.12 226.432 18.64 226.432 19.26C226.432 19.34 226.429 19.43 226.422 19.53C226.416 19.6233 226.409 19.71 226.402 19.79H222.192V18.7H225.202L224.352 18.99C224.352 18.7767 224.312 18.5967 224.232 18.45C224.159 18.2967 224.056 18.18 223.922 18.1C223.789 18.0133 223.629 17.97 223.442 17.97C223.256 17.97 223.092 18.0133 222.952 18.1C222.819 18.18 222.716 18.2967 222.642 18.45C222.569 18.5967 222.532 18.7767 222.532 18.99V19.33C222.532 19.5633 222.579 19.7633 222.672 19.93C222.766 20.0967 222.899 20.2233 223.072 20.31C223.246 20.39 223.456 20.43 223.702 20.43C223.956 20.43 224.162 20.3967 224.322 20.33C224.489 20.2633 224.662 20.1633 224.842 20.03L226.022 21.22C225.756 21.5067 225.426 21.7267 225.032 21.88C224.646 22.0267 224.179 22.1 223.632 22.1ZM157.4 34.1C156.773 34.1 156.217 33.98 155.73 33.74C155.243 33.5 154.86 33.1667 154.58 32.74C154.307 32.3067 154.17 31.8133 154.17 31.26C154.17 30.7067 154.307 30.2167 154.58 29.79C154.86 29.3633 155.243 29.03 155.73 28.79C156.217 28.55 156.773 28.43 157.4 28.43C158.067 28.43 158.637 28.5733 159.11 28.86C159.583 29.1467 159.91 29.5433 160.09 30.05L158.34 30.91C158.227 30.6567 158.087 30.4733 157.92 30.36C157.76 30.2467 157.583 30.19 157.39 30.19C157.223 30.19 157.067 30.23 156.92 30.31C156.78 30.39 156.667 30.51 156.58 30.67C156.5 30.8233 156.46 31.02 156.46 31.26C156.46 31.5 156.5 31.7 156.58 31.86C156.667 32.02 156.78 32.14 156.92 32.22C157.067 32.3 157.223 32.34 157.39 32.34C157.583 32.34 157.76 32.2833 157.92 32.17C158.087 32.0567 158.227 31.8733 158.34 31.62L160.09 32.48C159.91 32.9867 159.583 33.3833 159.11 33.67C158.637 33.9567 158.067 34.1 157.4 34.1ZM160.712 34V28.53H163.782C164.515 28.53 165.085 28.6567 165.492 28.91C165.898 29.1567 166.102 29.5067 166.102 29.96C166.102 30.4 165.915 30.7533 165.542 31.02C165.168 31.28 164.665 31.41 164.032 31.41L164.202 30.95C164.875 30.95 165.385 31.0733 165.732 31.32C166.085 31.5667 166.262 31.9267 166.262 32.4C166.262 32.8867 166.068 33.2767 165.682 33.57C165.302 33.8567 164.722 34 163.942 34H160.712ZM162.692 32.6H163.742C163.908 32.6 164.032 32.5633 164.112 32.49C164.192 32.4167 164.232 32.3167 164.232 32.19C164.232 32.0567 164.192 31.96 164.112 31.9C164.032 31.8333 163.908 31.8 163.742 31.8H162.692V32.6ZM162.692 30.69H163.582C163.755 30.69 163.878 30.6567 163.952 30.59C164.032 30.5233 164.072 30.4267 164.072 30.3C164.072 30.1667 164.032 30.0733 163.952 30.02C163.878 29.96 163.755 29.93 163.582 29.93H162.692V30.69ZM169.951 34.1C169.284 34.1 168.701 33.9767 168.201 33.73C167.707 33.4833 167.324 33.1467 167.051 32.72C166.777 32.2867 166.641 31.8 166.641 31.26C166.641 30.7067 166.774 30.2167 167.041 29.79C167.314 29.3633 167.684 29.03 168.151 28.79C168.624 28.55 169.154 28.43 169.741 28.43C170.281 28.43 170.777 28.5367 171.231 28.75C171.691 28.9633 172.057 29.28 172.331 29.7C172.611 30.12 172.751 30.64 172.751 31.26C172.751 31.34 172.747 31.43 172.741 31.53C172.734 31.6233 172.727 31.71 172.721 31.79H168.511V30.7H171.521L170.671 30.99C170.671 30.7767 170.631 30.5967 170.551 30.45C170.477 30.2967 170.374 30.18 170.241 30.1C170.107 30.0133 169.947 29.97 169.761 29.97C169.574 29.97 169.411 30.0133 169.271 30.1C169.137 30.18 169.034 30.2967 168.961 30.45C168.887 30.5967 168.851 30.7767 168.851 30.99V31.33C168.851 31.5633 168.897 31.7633 168.991 31.93C169.084 32.0967 169.217 32.2233 169.391 32.31C169.564 32.39 169.774 32.43 170.021 32.43C170.274 32.43 170.481 32.3967 170.641 32.33C170.807 32.2633 170.981 32.1633 171.161 32.03L172.341 33.22C172.074 33.5067 171.744 33.7267 171.351 33.88C170.964 34.0267 170.497 34.1 169.951 34.1ZM174.667 34V29.81L175.157 30.29H172.997V28.53H178.587V30.29H176.427L176.917 29.81V34H174.667ZM181.852 34.1C181.232 34.1 180.682 33.98 180.202 33.74C179.729 33.4933 179.355 33.1567 179.082 32.73C178.809 32.3033 178.672 31.8133 178.672 31.26C178.672 30.7067 178.809 30.2167 179.082 29.79C179.355 29.3633 179.729 29.03 180.202 28.79C180.682 28.55 181.232 28.43 181.852 28.43C182.472 28.43 183.022 28.55 183.502 28.79C183.982 29.03 184.355 29.3633 184.622 29.79C184.895 30.2167 185.032 30.7067 185.032 31.26C185.032 31.8133 184.895 32.3033 184.622 32.73C184.355 33.1567 183.982 33.4933 183.502 33.74C183.022 33.98 182.472 34.1 181.852 34.1ZM181.852 32.34C182.019 32.34 182.169 32.3 182.302 32.22C182.435 32.14 182.542 32.02 182.622 31.86C182.702 31.6933 182.742 31.4933 182.742 31.26C182.742 31.02 182.702 30.8233 182.622 30.67C182.542 30.51 182.435 30.39 182.302 30.31C182.169 30.23 182.019 30.19 181.852 30.19C181.685 30.19 181.535 30.23 181.402 30.31C181.269 30.39 181.162 30.51 181.082 30.67C181.002 30.8233 180.962 31.02 180.962 31.26C180.962 31.4933 181.002 31.6933 181.082 31.86C181.162 32.02 181.269 32.14 181.402 32.22C181.535 32.3 181.685 32.34 181.852 32.34ZM185.731 34V28.53H191.601V34H189.351V29.82L189.841 30.29H187.491L187.981 29.82V34H185.731ZM196.315 34.1C195.841 34.1 195.448 34 195.135 33.8C194.828 33.5933 194.601 33.2833 194.455 32.87C194.308 32.45 194.235 31.9167 194.235 31.27C194.235 30.61 194.301 30.0733 194.435 29.66C194.575 29.24 194.798 28.93 195.105 28.73C195.411 28.53 195.815 28.43 196.315 28.43C196.795 28.43 197.235 28.5467 197.635 28.78C198.035 29.0067 198.355 29.3333 198.595 29.76C198.835 30.18 198.955 30.6833 198.955 31.27C198.955 31.8567 198.835 32.3633 198.595 32.79C198.355 33.21 198.035 33.5333 197.635 33.76C197.235 33.9867 196.795 34.1 196.315 34.1ZM192.665 35.94V28.53H194.815V29.27L194.825 31.27L194.925 33.27V35.94H192.665ZM195.775 32.34C195.941 32.34 196.091 32.3 196.225 32.22C196.358 32.14 196.465 32.02 196.545 31.86C196.625 31.7 196.665 31.5033 196.665 31.27C196.665 31.03 196.625 30.83 196.545 30.67C196.465 30.51 196.358 30.39 196.225 30.31C196.091 30.23 195.941 30.19 195.775 30.19C195.608 30.19 195.458 30.23 195.325 30.31C195.191 30.39 195.085 30.51 195.005 30.67C194.925 30.83 194.885 31.03 194.885 31.27C194.885 31.5033 194.925 31.7 195.005 31.86C195.085 32.02 195.191 32.14 195.325 32.22C195.458 32.3 195.608 32.34 195.775 32.34ZM202.506 34.1C201.886 34.1 201.336 33.98 200.856 33.74C200.383 33.4933 200.01 33.1567 199.736 32.73C199.463 32.3033 199.326 31.8133 199.326 31.26C199.326 30.7067 199.463 30.2167 199.736 29.79C200.01 29.3633 200.383 29.03 200.856 28.79C201.336 28.55 201.886 28.43 202.506 28.43C203.126 28.43 203.676 28.55 204.156 28.79C204.636 29.03 205.01 29.3633 205.276 29.79C205.55 30.2167 205.686 30.7067 205.686 31.26C205.686 31.8133 205.55 32.3033 205.276 32.73C205.01 33.1567 204.636 33.4933 204.156 33.74C203.676 33.98 203.126 34.1 202.506 34.1ZM202.506 32.34C202.673 32.34 202.823 32.3 202.956 32.22C203.09 32.14 203.196 32.02 203.276 31.86C203.356 31.6933 203.396 31.4933 203.396 31.26C203.396 31.02 203.356 30.8233 203.276 30.67C203.196 30.51 203.09 30.39 202.956 30.31C202.823 30.23 202.673 30.19 202.506 30.19C202.34 30.19 202.19 30.23 202.056 30.31C201.923 30.39 201.816 30.51 201.736 30.67C201.656 30.8233 201.616 31.02 201.616 31.26C201.616 31.4933 201.656 31.6933 201.736 31.86C201.816 32.02 201.923 32.14 202.056 32.22C202.19 32.3 202.34 32.34 202.506 32.34ZM208.359 34.13C208.906 34.13 209.402 34.0633 209.849 33.93C210.302 33.7967 210.666 33.5967 210.939 33.33C211.212 33.0633 211.349 32.7333 211.349 32.34C211.349 31.9333 211.176 31.61 210.829 31.37C210.482 31.13 210.016 31.01 209.429 31.01L209.379 31.41C209.719 31.41 210.026 31.3467 210.299 31.22C210.572 31.0933 210.789 30.9233 210.949 30.71C211.116 30.4967 211.199 30.2567 211.199 29.99C211.199 29.6233 211.069 29.3233 210.809 29.09C210.549 28.8567 210.199 28.6833 209.759 28.57C209.319 28.4567 208.832 28.4033 208.299 28.41C207.919 28.4167 207.526 28.4633 207.119 28.55C206.719 28.6367 206.332 28.7533 205.959 28.9L206.469 30.33C206.782 30.2233 207.086 30.14 207.379 30.08C207.672 30.02 207.952 29.99 208.219 29.99C208.399 29.99 208.539 30.0033 208.639 30.03C208.746 30.0567 208.819 30.0933 208.859 30.14C208.906 30.1867 208.929 30.2433 208.929 30.31C208.929 30.3767 208.912 30.4333 208.879 30.48C208.846 30.5267 208.792 30.56 208.719 30.58C208.652 30.6 208.562 30.61 208.449 30.61H207.409V31.87H208.659C208.812 31.87 208.919 31.8933 208.979 31.94C209.046 31.98 209.079 32.0533 209.079 32.16C209.079 32.2467 209.046 32.3167 208.979 32.37C208.912 32.4233 208.819 32.4633 208.699 32.49C208.586 32.5167 208.452 32.53 208.299 32.53C207.959 32.53 207.629 32.5067 207.309 32.46C206.996 32.4133 206.682 32.3333 206.369 32.22L205.799 33.71C206.212 33.8567 206.636 33.9633 207.069 34.03C207.509 34.0967 207.939 34.13 208.359 34.13ZM215.719 34.1C215.246 34.1 214.852 34 214.539 33.8C214.232 33.5933 214.006 33.2833 213.859 32.87C213.712 32.45 213.639 31.9167 213.639 31.27C213.639 30.61 213.706 30.0733 213.839 29.66C213.979 29.24 214.202 28.93 214.509 28.73C214.816 28.53 215.219 28.43 215.719 28.43C216.199 28.43 216.639 28.5467 217.039 28.78C217.439 29.0067 217.759 29.3333 217.999 29.76C218.239 30.18 218.359 30.6833 218.359 31.27C218.359 31.8567 218.239 32.3633 217.999 32.79C217.759 33.21 217.439 33.5333 217.039 33.76C216.639 33.9867 216.199 34.1 215.719 34.1ZM212.069 35.94V28.53H214.219V29.27L214.229 31.27L214.329 33.27V35.94H212.069ZM215.179 32.34C215.346 32.34 215.496 32.3 215.629 32.22C215.762 32.14 215.869 32.02 215.949 31.86C216.029 31.7 216.069 31.5033 216.069 31.27C216.069 31.03 216.029 30.83 215.949 30.67C215.869 30.51 215.762 30.39 215.629 30.31C215.496 30.23 215.346 30.19 215.179 30.19C215.012 30.19 214.862 30.23 214.729 30.31C214.596 30.39 214.489 30.51 214.409 30.67C214.329 30.83 214.289 31.03 214.289 31.27C214.289 31.5033 214.329 31.7 214.409 31.86C214.489 32.02 214.596 32.14 214.729 32.22C214.862 32.3 215.012 32.34 215.179 32.34ZM222.144 34V33.03L221.984 32.77V30.93C221.984 30.6633 221.9 30.46 221.734 30.32C221.574 30.18 221.31 30.11 220.944 30.11C220.697 30.11 220.447 30.15 220.194 30.23C219.94 30.3033 219.724 30.4067 219.544 30.54L218.824 29.05C219.144 28.85 219.527 28.6967 219.974 28.59C220.42 28.4833 220.857 28.43 221.284 28.43C222.224 28.43 222.95 28.64 223.464 29.06C223.984 29.48 224.244 30.1467 224.244 31.06V34H222.144ZM220.594 34.1C220.147 34.1 219.774 34.0233 219.474 33.87C219.174 33.7167 218.947 33.5133 218.794 33.26C218.64 33 218.564 32.7133 218.564 32.4C218.564 32.0467 218.654 31.7467 218.834 31.5C219.014 31.2533 219.287 31.0667 219.654 30.94C220.027 30.8133 220.497 30.75 221.064 30.75H222.204V31.84H221.424C221.184 31.84 221.007 31.88 220.894 31.96C220.787 32.0333 220.734 32.1467 220.734 32.3C220.734 32.4267 220.78 32.5333 220.874 32.62C220.974 32.7 221.107 32.74 221.274 32.74C221.427 32.74 221.567 32.7 221.694 32.62C221.827 32.5333 221.924 32.4 221.984 32.22L222.274 32.89C222.187 33.2967 222.004 33.6 221.724 33.8C221.444 34 221.067 34.1 220.594 34.1ZM228.625 32.06C228.478 32.1667 228.288 32.2567 228.055 32.33C227.828 32.3967 227.548 32.43 227.215 32.43C226.428 32.43 225.838 32.2567 225.445 31.91C225.058 31.5567 224.865 30.9867 224.865 30.2V28.53H227.115V30.05C227.115 30.33 227.168 30.5233 227.275 30.63C227.381 30.73 227.541 30.78 227.755 30.78C227.941 30.78 228.105 30.76 228.245 30.72C228.391 30.6733 228.515 30.6133 228.615 30.54L228.625 32.06ZM228.475 34V28.53H230.725V34H228.475ZM231.786 34V28.53H234.036V30.45H235.576V28.53H237.826V34H235.576V32.22H234.036V34H231.786ZM244.775 34V28.53H247.025V34H244.775ZM242.265 30.18C242.999 30.18 243.545 30.34 243.905 30.66C244.265 30.98 244.445 31.4333 244.445 32.02C244.445 32.6333 244.232 33.1167 243.805 33.47C243.385 33.8233 242.779 34 241.985 34H238.885V28.53H241.135V30.18H242.265ZM241.755 32.48C241.909 32.48 242.029 32.44 242.115 32.36C242.202 32.28 242.245 32.1533 242.245 31.98C242.245 31.8067 242.202 31.6833 242.115 31.61C242.029 31.5367 241.909 31.5 241.755 31.5H241.135V32.48H241.755ZM251.035 34.1C250.368 34.1 249.785 33.9767 249.285 33.73C248.791 33.4833 248.408 33.1467 248.135 32.72C247.861 32.2867 247.725 31.8 247.725 31.26C247.725 30.7067 247.858 30.2167 248.125 29.79C248.398 29.3633 248.768 29.03 249.235 28.79C249.708 28.55 250.238 28.43 250.825 28.43C251.365 28.43 251.861 28.5367 252.315 28.75C252.775 28.9633 253.141 29.28 253.415 29.7C253.695 30.12 253.835 30.64 253.835 31.26C253.835 31.34 253.831 31.43 253.825 31.53C253.818 31.6233 253.811 31.71 253.805 31.79H249.595V30.7H252.605L251.755 30.99C251.755 30.7767 251.715 30.5967 251.635 30.45C251.561 30.2967 251.458 30.18 251.325 30.1C251.191 30.0133 251.031 29.97 250.845 29.97C250.658 29.97 250.495 30.0133 250.355 30.1C250.221 30.18 250.118 30.2967 250.045 30.45C249.971 30.5967 249.935 30.7767 249.935 30.99V31.33C249.935 31.5633 249.981 31.7633 250.075 31.93C250.168 32.0967 250.301 32.2233 250.475 32.31C250.648 32.39 250.858 32.43 251.105 32.43C251.358 32.43 251.565 32.3967 251.725 32.33C251.891 32.2633 252.065 32.1633 252.245 32.03L253.425 33.22C253.158 33.5067 252.828 33.7267 252.435 33.88C252.048 34.0267 251.581 34.1 251.035 34.1ZM158.31 46L156.81 43.49L158.63 42.43L160.97 46H158.31ZM154.53 46V40.53H156.79V46H154.53ZM156.13 44.18V42.45H158.17V44.18H156.13ZM158.86 43.51L156.74 43.31L158.48 40.53H160.86L158.86 43.51ZM164.147 46.1C163.527 46.1 162.977 45.98 162.497 45.74C162.024 45.4933 161.65 45.1567 161.377 44.73C161.104 44.3033 160.967 43.8133 160.967 43.26C160.967 42.7067 161.104 42.2167 161.377 41.79C161.65 41.3633 162.024 41.03 162.497 40.79C162.977 40.55 163.527 40.43 164.147 40.43C164.767 40.43 165.317 40.55 165.797 40.79C166.277 41.03 166.65 41.3633 166.917 41.79C167.19 42.2167 167.327 42.7067 167.327 43.26C167.327 43.8133 167.19 44.3033 166.917 44.73C166.65 45.1567 166.277 45.4933 165.797 45.74C165.317 45.98 164.767 46.1 164.147 46.1ZM164.147 44.34C164.314 44.34 164.464 44.3 164.597 44.22C164.73 44.14 164.837 44.02 164.917 43.86C164.997 43.6933 165.037 43.4933 165.037 43.26C165.037 43.02 164.997 42.8233 164.917 42.67C164.837 42.51 164.73 42.39 164.597 42.31C164.464 42.23 164.314 42.19 164.147 42.19C163.98 42.19 163.83 42.23 163.697 42.31C163.564 42.39 163.457 42.51 163.377 42.67C163.297 42.8233 163.257 43.02 163.257 43.26C163.257 43.4933 163.297 43.6933 163.377 43.86C163.457 44.02 163.564 44.14 163.697 44.22C163.83 44.3 163.98 44.34 164.147 44.34ZM168.026 46V40.53H170.276V42.45H171.816V40.53H174.066V46H171.816V44.22H170.276V46H168.026ZM177.996 46.1C177.369 46.1 176.812 45.98 176.326 45.74C175.839 45.5 175.456 45.1667 175.176 44.74C174.902 44.3067 174.766 43.8133 174.766 43.26C174.766 42.7067 174.902 42.2167 175.176 41.79C175.456 41.3633 175.839 41.03 176.326 40.79C176.812 40.55 177.369 40.43 177.996 40.43C178.662 40.43 179.232 40.5733 179.706 40.86C180.179 41.1467 180.506 41.5433 180.686 42.05L178.936 42.91C178.822 42.6567 178.682 42.4733 178.516 42.36C178.356 42.2467 178.179 42.19 177.986 42.19C177.819 42.19 177.662 42.23 177.516 42.31C177.376 42.39 177.262 42.51 177.176 42.67C177.096 42.8233 177.056 43.02 177.056 43.26C177.056 43.5 177.096 43.7 177.176 43.86C177.262 44.02 177.376 44.14 177.516 44.22C177.662 44.3 177.819 44.34 177.986 44.34C178.179 44.34 178.356 44.2833 178.516 44.17C178.682 44.0567 178.822 43.8733 178.936 43.62L180.686 44.48C180.506 44.9867 180.179 45.3833 179.706 45.67C179.232 45.9567 178.662 46.1 177.996 46.1ZM182.616 46V41.81L183.106 42.29H180.946V40.53H186.536V42.29H184.376L184.866 41.81V46H182.616ZM190.836 46.1C190.363 46.1 189.97 46 189.656 45.8C189.35 45.5933 189.123 45.2833 188.976 44.87C188.83 44.45 188.756 43.9167 188.756 43.27C188.756 42.61 188.823 42.0733 188.956 41.66C189.096 41.24 189.32 40.93 189.626 40.73C189.933 40.53 190.336 40.43 190.836 40.43C191.316 40.43 191.756 40.5467 192.156 40.78C192.556 41.0067 192.876 41.3333 193.116 41.76C193.356 42.18 193.476 42.6833 193.476 43.27C193.476 43.8567 193.356 44.3633 193.116 44.79C192.876 45.21 192.556 45.5333 192.156 45.76C191.756 45.9867 191.316 46.1 190.836 46.1ZM187.186 47.94V40.53H189.336V41.27L189.346 43.27L189.446 45.27V47.94H187.186ZM190.296 44.34C190.463 44.34 190.613 44.3 190.746 44.22C190.88 44.14 190.986 44.02 191.066 43.86C191.146 43.7 191.186 43.5033 191.186 43.27C191.186 43.03 191.146 42.83 191.066 42.67C190.986 42.51 190.88 42.39 190.746 42.31C190.613 42.23 190.463 42.19 190.296 42.19C190.13 42.19 189.98 42.23 189.846 42.31C189.713 42.39 189.606 42.51 189.526 42.67C189.446 42.83 189.406 43.03 189.406 43.27C189.406 43.5033 189.446 43.7 189.526 43.86C189.606 44.02 189.713 44.14 189.846 44.22C189.98 44.3 190.13 44.34 190.296 44.34ZM195.351 48.04C195.051 48.04 194.745 47.9933 194.431 47.9C194.125 47.8133 193.878 47.6967 193.691 47.55L194.441 46C194.555 46.0867 194.681 46.1567 194.821 46.21C194.968 46.2633 195.108 46.29 195.241 46.29C195.441 46.29 195.595 46.2467 195.701 46.16C195.808 46.08 195.895 45.9567 195.961 45.79L196.191 45.21L196.351 44.99L198.101 40.53H200.241L197.991 46.11C197.791 46.61 197.558 47 197.291 47.28C197.031 47.56 196.738 47.7567 196.411 47.87C196.091 47.9833 195.738 48.04 195.351 48.04ZM195.881 46.25L193.501 40.53H195.821L197.461 44.79L195.881 46.25ZM204.521 46L203.021 43.49L204.841 42.43L207.181 46H204.521ZM200.741 46V40.53H203.001V46H200.741ZM202.341 44.18V42.45H204.381V44.18H202.341ZM205.071 43.51L202.951 43.31L204.691 40.53H207.071L205.071 43.51ZM207.684 46V40.53H209.934V44.23H211.254V40.53H213.504V46H207.684ZM212.144 47.08V46H212.634H211.254V44.23H214.234V47.08H212.144ZM214.891 46V40.53H217.141V43L219.031 40.53H221.111V46H218.861V43.52L216.981 46H214.891ZM222.167 46V40.53H224.417V43L226.307 40.53H228.387V46H226.137V43.52L224.257 46H222.167Z" fill="white"/>
</svg>
