<svg width="100" height="100" viewBox="0 0 100 100" fill="none" xmlns="http://www.w3.org/2000/svg">
<path d="M50.8241 98.5852C50.3775 99.0689 50.0025 99.4815 49.5313 100C48.6032 99.0151 47.7621 98.14 46.9401 97.2475C36.6913 86.1189 27.0886 74.4913 19.3162 61.4619C16.5095 56.7566 14.0542 51.8731 12.3795 46.6423C10.1619 39.7159 10.7645 32.8489 13.1421 26.1025C16.881 15.4939 23.9402 7.77945 34.2561 3.33728C45.7182 -1.59846 57.1779 -1.07009 68.0926 4.99399C79.2343 11.1842 85.6485 20.8297 87.6584 33.4015C88.7357 40.1399 87.1623 46.4036 84.3823 52.4762C78.9363 64.3725 71.2496 74.7973 62.9396 84.7909C59.0498 89.4687 54.9179 93.946 50.8241 98.5852ZM47.9045 22.7559C39.6794 23.5372 33.4668 30.562 33.604 38.926C33.7384 47.1266 40.3643 53.9452 48.6605 54.4206C57.7185 54.9396 65.4443 47.601 65.4181 38.5028C65.3913 29.2013 57.6114 22.0997 47.9045 22.7559Z" fill="#5BAD54"/>
</svg>
