<svg width="353" height="353" viewBox="0 0 353 353" fill="none" xmlns="http://www.w3.org/2000/svg">
<path d="M167.237 352.165C139.924 349.858 114.305 343.335 90.7494 329.901C57.1581 310.743 32.3157 283.619 16.2114 248.363C4.26752 222.215 -0.734185 194.799 0.848746 166.285C2.99111 127.694 16.4932 93.2873 41.3016 63.6C65.7471 34.3469 96.4282 14.313 133.602 5.61811C195.282 -8.80892 250.107 5.3667 296.987 48.0982C323.992 72.7133 341.339 103.393 348.496 139.192C360.078 197.123 346.498 248.823 307.512 293.417C285.112 319.04 257.083 336.156 224.477 345.567C205.988 350.904 186.986 353.009 167.237 352.165ZM202.493 220.011C198.952 219.858 195.542 219.128 192.413 217.434C167.563 203.979 148.224 185.011 135.183 159.844C130.806 151.397 132.093 142.845 138.546 135.831C141.476 132.646 144.691 129.724 147.646 126.561C153.307 120.503 153.657 113.67 147.998 107.822C136.877 96.3322 125.564 85.0214 114.09 73.8838C108.638 68.5915 101.832 68.5177 96.0693 73.493C91.0351 77.8393 86.385 82.6371 81.6475 87.3187C76.9166 91.9939 73.9292 97.6726 72.1859 104.081C67.7993 120.205 71.391 135.497 77.4222 150.336C90.0189 181.33 110.431 206.837 134.465 229.619C156.288 250.304 180.241 267.869 209.042 277.713C223.281 282.579 237.821 285.087 252.473 279.197C264.91 274.197 272.962 263.994 280.8 253.911C284.718 248.87 283.382 243.19 278.365 238.096C267.261 226.82 256.051 215.645 244.708 204.608C239.17 199.22 232.185 199.385 226.407 204.66C223.58 207.241 220.849 209.943 218.229 212.735C214.163 217.067 209.28 219.578 202.493 220.011Z" fill="#5BAD54"/>
</svg>
