<svg width="496" height="497" viewBox="0 0 496 497" fill="none" xmlns="http://www.w3.org/2000/svg">
<path d="M219.334 494.647C181.658 490.529 147.404 477.99 115.805 458.09C112.601 456.072 109.954 455.921 106.515 457.038C77.8771 466.345 49.1907 475.501 20.5162 484.694C19.4622 485.032 18.3791 485.279 16.3571 485.826C19.3092 476.962 22.0009 468.824 24.7283 460.699C31.5563 440.358 38.2965 419.986 45.3239 399.714C46.7725 395.535 46.3612 392.442 43.8186 388.759C12.169 342.908 -2.51728 291.858 0.417509 236.435C4.16075 165.744 33.2475 106.628 86.9693 60.4404C136.527 17.8335 194.649 -1.81872 259.855 1.222C321.146 4.08019 374.254 27.263 418.785 69.5025C456.111 104.907 480.096 148.101 490.495 198.369C501.336 250.777 495.753 301.758 473.541 350.618C450.659 400.952 414.792 439.539 366.414 466.112C320.706 491.218 271.668 500.603 219.334 494.647ZM393.427 345.926C394.664 337.745 396.043 329.581 397.073 321.374C397.55 317.573 395.773 314.538 392.232 312.832C372.9 303.519 353.665 293.991 334.154 285.068C325.843 281.267 320.52 283.227 314.952 290.471C311.3 295.222 307.903 300.167 304.339 304.985C292.647 320.792 289.721 323.889 267.492 313.599C230.11 296.294 202.272 268.7 181.06 233.895C177.077 227.359 177.253 224.077 182.284 218.104C187.002 212.501 192.124 207.232 196.732 201.544C201.098 196.156 204.974 190.315 201.849 182.863C193.294 162.46 184.731 142.059 175.863 121.793C174.785 119.33 172.115 116.449 169.685 115.877C155.438 112.523 141.111 112.357 129.716 123.011C123.147 129.154 117.232 136.645 113.077 144.603C99.4279 170.749 101.215 197.626 113.475 223.532C120.259 237.868 129.024 251.404 138.026 264.525C157.361 292.707 180.576 317.395 207.64 338.398C236.448 360.754 269.579 373.82 304.221 383.709C331.566 391.515 356.279 386.255 378.382 368.598C385.529 362.889 391.13 355.941 393.427 345.926Z" fill="#5BAD54"/>
</svg>
